<svg width="50" height="51" viewBox="0 0 50 51" fill="none" xmlns="http://www.w3.org/2000/svg">
<path d="M42.7109 7.30168C38.0095 2.59092 31.7568 0 25.0958 0C11.3749 0 0.207273 11.1676 0.207273 24.8979C0.207273 29.2852 1.3567 33.5752 3.53307 37.3438L0 50.2481L13.1995 46.7841C16.8394 48.7658 20.9346 49.8179 25.0926 49.8179H25.1021C38.8229 49.8179 50 38.6502 50 24.9199C50 18.2652 47.4091 12.0156 42.7077 7.30482L42.7109 7.30168ZM25.1021 45.6159C21.3837 45.6159 17.7407 44.614 14.5625 42.7297L13.8057 42.2775L5.97324 44.3282L8.06482 36.6937L7.5749 35.9085C5.49275 32.6204 4.40613 28.8141 4.40613 24.8979C4.40613 13.4853 13.6895 4.19886 25.1146 4.19886C30.6388 4.19886 35.8426 6.35952 39.7462 10.2632C43.653 14.1794 45.8011 19.3706 45.8011 24.9042C45.7917 36.3262 36.5084 45.6127 25.1021 45.6127V45.6159ZM36.4487 30.1112C35.83 29.7971 32.768 28.296 32.1996 28.0887C31.6312 27.8814 31.2166 27.7746 30.7958 28.4027C30.3844 29.0214 29.1879 30.4252 28.8236 30.8461C28.4593 31.2575 28.0981 31.3171 27.4794 31.0031C26.8608 30.689 24.8477 30.0327 22.4735 27.9128C20.6268 26.2641 19.3738 24.2227 19.0095 23.604C18.6452 22.9854 18.9687 22.643 19.2858 22.3384C19.5716 22.0621 19.9045 21.613 20.2186 21.2487C20.5326 20.8844 20.63 20.63 20.8373 20.2092C21.0445 19.7978 20.944 19.4335 20.787 19.1194C20.63 18.8054 19.3832 15.7434 18.8744 14.4966C18.3751 13.2781 17.8538 13.4476 17.4706 13.4257C17.1063 13.4068 16.6949 13.4068 16.2835 13.4068C15.8721 13.4068 15.1938 13.5638 14.6253 14.1825C14.0569 14.8012 12.4458 16.3118 12.4458 19.3738C12.4458 22.4358 14.6724 25.391 14.9865 25.8118C15.3005 26.2232 19.3738 32.5137 25.614 35.2051C27.0963 35.8426 28.2551 36.2257 29.1565 36.5209C30.6482 36.992 32.0018 36.9229 33.0727 36.7659C34.2692 36.59 36.7533 35.2647 37.2747 33.8107C37.796 32.3566 37.796 31.113 37.639 30.8555C37.4914 30.5791 37.08 30.4252 36.4519 30.108L36.4487 30.1112Z" fill="#38A48C"/>
</svg>
