<svg id="Layer_1" data-name="Layer 1" xmlns="http://www.w3.org/2000/svg" viewBox="0 0 1200 264.71"><defs><style>.cls-2{fill:#1a5678}.cls-3{fill:#571c56}.cls-4{fill:#159097}.cls-5{fill:#38a48c}.cls-6{fill:#f8d092}.cls-8{fill:#dba865}.cls-9{fill:#27245d}.cls-10{fill:#25245d}</style></defs><path d="M1200 168.45c-25-16.86-59.26-6.33-85.82 8.05s-53.79 32.79-84 30.3c-59.37-4.9-87-84.61-145.38-96.17-33.53-6.64-67.21 11.9-91.91 35.23s-44.07 51.95-70.49 73.35-63.84 34.79-95 20.84c-20.11-9-34.37-27.92-54.62-36.61-17.41-7.47-37.3-6.56-55.57-11.65-45.37-12.62-71.5-57.91-95-98.21S366.34 9.92 319.33 6.49C279.22 3.57 243.63 31.64 218 62.2s-46.9 66-80.39 88c-4.23 2.77-8.85 5.38-13.92 5.69-7.21.45-13.76-3.73-19.89-7.51-16.17-10-34-18.32-53-19.78S11.38 133.64 0 148.72V271h1200Z" transform="translate(0 -6.28)" style="fill:#070715"/><path class="cls-2" d="M535.63 225.73q1.7 4.65 2.92 9.45c.81 3.12 1.74 6.69 1.37 9.8a74.18 74.18 0 0 1-2.15-9.62c-.53-3.19-1.63-6.61-2.14-9.63Z" transform="translate(0 -6.28)"/><path class="cls-3" d="M862.06 219.1c2.7-2.67 5.58-5.75 5.59-9.51a14.12 14.12 0 0 0 5.44 8.87 7.29 7.29 0 0 0-4.13 8.45 11.67 11.67 0 0 0-2.12-5.61 5.56 5.56 0 0 0-4.78-2.2" transform="translate(0 -6.28)"/><path class="cls-4" d="M916.82 240.37c2.7-2.67 5.59-5.75 5.59-9.5a14.18 14.18 0 0 0 5.45 8.87 7.26 7.26 0 0 0-4.13 8.44 11.77 11.77 0 0 0-2.12-5.61 5.59 5.59 0 0 0-4.79-2.2" transform="translate(0 -6.28)"/><path class="cls-3" d="M703.75 253.4c1.64-2.67 3.38-5.75 3.39-9.5a17.25 17.25 0 0 0 3.29 8.87c-1.94 1.33-3.07 5.17-2.5 8.45a16.9 16.9 0 0 0-1.28-5.62c-.75-1.61-1.65-2.14-2.9-2.2" transform="translate(0 -6.28)"/><path class="cls-4" d="M372.36 195.78c1.63-2.67 3.38-5.75 3.38-9.51a17.27 17.27 0 0 0 3.29 8.87c-1.94 1.34-3.07 5.17-2.5 8.45a16.9 16.9 0 0 0-1.28-5.62c-.75-1.61-1.65-2.13-2.89-2.19" transform="translate(0 -6.28)"/><path class="cls-3" d="M381.88 104.87c1.64-2.67 3.38-5.75 3.39-9.5a17.25 17.25 0 0 0 3.29 8.87c-1.94 1.34-3.07 5.17-2.5 8.45a16.9 16.9 0 0 0-1.28-5.62 3.15 3.15 0 0 0-2.9-2.2" transform="translate(0 -6.28)"/><path class="cls-4" d="M244 71.44c1.64-2.67 3.38-5.75 3.39-9.5a17.17 17.17 0 0 0 3.29 8.87c-1.94 1.33-3.08 5.17-2.5 8.45a16.9 16.9 0 0 0-1.28-5.62c-.75-1.61-1.65-2.14-2.9-2.2" transform="translate(0 -6.28)"/><path class="cls-3" d="M1047.06 237c2.7-2.67 5.58-5.75 5.59-9.5a14.17 14.17 0 0 0 5.44 8.87 7.28 7.28 0 0 0-4.13 8.45 11.74 11.74 0 0 0-2.12-5.62 5.59 5.59 0 0 0-4.78-2.2m-945.76-1.55c1 .27 1.87-.89 2.31-1.86l2.31-5a7.88 7.88 0 0 0 1-3.5 12 12 0 0 0 6 9.66c-1.49-.78-3.37.21-4.37 1.54-2 2.62-1.83 6.16-1.62 9.4a10.86 10.86 0 0 0-5.14-9.9" transform="translate(0 -6.28)"/><path class="cls-4" d="M837.19 150.32q12.62 4.86 24.87 10.59m-506.56-1.36q8.34-10.45 17.43-20.31" transform="translate(0 -6.28)"/><path class="cls-5" d="M1099.78 230.84c-1-3.17-2-6.3-3.28-9.36a31.72 31.72 0 0 1-3-9.44l.18-.08a18.81 18.81 0 0 1 4.38 9 67.19 67.19 0 0 1 2 9.82l-.2.05ZM17.67 182.41c-1-3.16-2-6.29-3.28-9.35a31.72 31.72 0 0 1-3-9.44l.18-.09a18.89 18.89 0 0 1 4.38 9 66.93 66.93 0 0 1 2 9.82h-.2Z" transform="translate(0 -6.28)"/><path class="cls-6" d="M262.4 121.33c2.57 0 2.58-4 0-4s-2.58 4 0 4Zm160.18 33.2c2.58 0 2.58-4 0-4s-2.58 4 0 4Zm-145.86 95.65c2.58 0 2.58-4 0-4s-2.58 4 0 4Zm-116.32-1.65c2.57 0 2.57-4 0-4s-2.58 4 0 4ZM14.6 224.39c2.58 0 2.58-4 0-4s-2.57 4 0 4ZM75 176.75c2.57 0 2.58-4 0-4s-2.58 4 0 4Zm741.93 53.15c2.58 0 2.58-4 0-4s-2.58 4 0 4Zm50.64-91.64c2.58 0 2.58-4 0-4s-2.57 4 0 4Zm144.22 102c2.58 0 2.58-4 0-4s-2.57 4 0 4Zm-623.23 5.12a1 1 0 0 0 0-2 1 1 0 0 0 0 2Zm364.53-15a1 1 0 0 0 0-2 1 1 0 0 0 0 2ZM195.63 193.3a1 1 0 0 0 0-2 1 1 0 0 0 0 2ZM488 239.26a1 1 0 0 0 0-2 1 1 0 0 0 0 2Z" transform="translate(0 -6.28)"/><path class="cls-5" d="M262.4 161.41a.5.5 0 0 0 0-1 .5.5 0 0 0 0 1Zm160.18 51.69a.5.5 0 0 0 0-1 .5.5 0 0 0 0 1Zm589.21 25.66a.5.5 0 0 0 0-1 .5.5 0 0 0 0 1Zm160.85-53.34a.5.5 0 0 0 0-1 .5.5 0 0 0 0 1ZM773.6 248.68a.5.5 0 0 0 0-1 .5.5 0 0 0 0 1Zm105.99-69.03a.5.5 0 0 0 0-1 .5.5 0 0 0 0 1ZM635.7 261.72a.5.5 0 0 0 0-1 .5.5 0 0 0 0 1Zm335.49-19.5a.5.5 0 0 0 0-1 .5.5 0 0 0 0 1Zm-641.1-137.34a.5.5 0 0 0 0-1 .5.5 0 0 0 0 1ZM143.41 208.09a.5.5 0 0 0 0-1 .5.5 0 0 0 0 1ZM244 261.24a.5.5 0 0 0 0-1 .5.5 0 0 0 0 1Zm-35.71-98.33a.5.5 0 0 0 0-1 .5.5 0 0 0 0 1ZM24.83 150.9c2.58 0 2.58-4 0-4s-2.57 4 0 4ZM297 31.43c2.57 0 2.57-4 0-4s-2.58 4 0 4Zm270.32 188.82c2.57 0 2.58-4 0-4s-2.58 4 0 4ZM443.1 256.78c2.57 0 2.57-4 0-4s-2.58 4 0 4Zm319.1-49.36c2.58 0 2.58-4 0-4s-2.57 4 0 4Zm117.39 42.76c2.58 0 2.58-4 0-4s-2.58 4 0 4Zm37.23-95.65c2.58 0 2.58-4 0-4s-2.58 4 0 4Zm166.77 100.03c2.58 0 2.58-4 0-4s-2.57 4 0 4Zm59.81-70.17c2.57 0 2.57-4 0-4s-2.58 4 0 4Zm-935.11 46.28c2.57 0 2.58-4 0-4s-2.58 4 0 4ZM305 140.63c2.58 0 2.58-4 0-4s-2.58 4 0 4ZM48.54 229.9c2.57 0 2.58-4 0-4s-2.58 4 0 4Z" transform="translate(0 -6.28)"/><path class="cls-6" d="M813.91 177.62c0 1.84.37 4.68 1.42 6.21s2 3.39 1.43 5.14c-.68 2-3.06 2.91-5.15 3.53l-4.42 1.32a5.41 5.41 0 0 1-2 .32 4.49 4.49 0 0 1-2.06-.93 17.26 17.26 0 0 1-3.14-2.83 3.45 3.45 0 0 1-.94-1.76c-.14-1.55 1.66-2.72 1.73-4.27a10.84 10.84 0 0 0-.24-1.6 6.74 6.74 0 0 1 1.25-4l2.69-4.76a1.76 1.76 0 0 1 .83-.89 1.69 1.69 0 0 1 1.54.51c1 .84 1.85 1.89 2.89 2.71a4.54 4.54 0 0 0 3.71 1.1" transform="translate(0 -6.28)"/><path d="M802.59 172.37a28.32 28.32 0 0 1-3.25-2.05 3 3 0 0 1-.7-1.15l.06-.08a3.21 3.21 0 0 1 2.19 1.33c.61.6 1.19 1.23 1.76 1.87l-.06.08Zm-5.48 2q-2.91-1.59-5.67-3.42a17.05 17.05 0 0 1-5-4.32l.06-.07a25 25 0 0 1 5.42 3.74q2.6 2 5.26 4v.09Zm-.02 6.49a12.58 12.58 0 0 1-2.32-.86c-.13-.13-.56-.63-.41-.89a1.43 1.43 0 0 1 1.57.53 16 16 0 0 1 1.21 1.13v.09Zm-10.24-6.07a37.81 37.81 0 0 1-3.72-2.29 3.91 3.91 0 0 1-.88-1.24l.06-.08a4.11 4.11 0 0 1 2.51 1.49c.72.66 1.41 1.34 2.09 2l-.06.08Zm8.77 10.79c-2.11-1.68-4.74-2.39-6.61-4.36v-.09a6.29 6.29 0 0 1 3.66 1.67 23.89 23.89 0 0 1 3 2.7l-.07.08Z" transform="translate(0 -6.28)" style="fill:#f7d192"/><path class="cls-8" d="M811.11 187.1a3.5 3.5 0 0 1 .07.41 2.46 2.46 0 0 1 0 .28v.12c0 .08-.11.26 0 .11l-.09.15c.06-.07.06-.08 0 0h-.07.08c-.1 0-.11 0 0 0s.06 0 0 0c.06 0 .16 0 0 0h-.05a.55.55 0 0 1-.14-.09 5.19 5.19 0 0 0-.81-.5 2.78 2.78 0 0 0-2.47.31c-.15.08-.3.17-.46.24s-.21.1-.09.05l-.24.07h.06-.12c-.18-.06-.07-.06 0 0h-.07a.27.27 0 0 1 .13.13 1 1 0 0 0-1.37-.36 1 1 0 0 0-.36 1.37 2.27 2.27 0 0 0 3 .56c.19-.09.37-.19.55-.29l.33-.17.2-.06h.1c-.1 0-.09 0 0 0h.11c-.21-.07 0 0 0 0a2.2 2.2 0 0 1 .25.17 2.63 2.63 0 0 0 1.05.54 2 2 0 0 0 1.69-.47 3 3 0 0 0 .63-3.07 1 1 0 0 0-1.23-.7 1 1 0 0 0-.7 1.23Z" transform="translate(0 -6.28)"/><path class="cls-8" d="M809.68 184.8a2.81 2.81 0 0 0-2.75-.58 2.66 2.66 0 0 0-1.76 2.08 2.3 2.3 0 0 0 1.38 2.63 1.61 1.61 0 0 0 1.62-.35 4 4 0 0 0 .6-.85c.13-.21-.14.17 0 0 0 0 .15-.08-.1.07.14-.08-.2 0-.09 0h-.06c.14 0-.18-.06 0 0a.39.39 0 0 1 .14.05c-.21-.13 0 0 .06 0l1.49.66a1 1 0 0 0 1.37-.36 1 1 0 0 0-.36-1.36l-1.1-.49a6.06 6.06 0 0 0-1.21-.5 1.68 1.68 0 0 0-1.53.42 3.8 3.8 0 0 0-.52.74.6.6 0 0 0-.09.15s.15-.15.08-.1l-.05.05c-.08.11.2-.11 0 0s.16-.05.19-.06h.09c.18 0-.1-.06.08 0s.15.15 0 0 .08.11 0 0 0-.13 0 0a1.6 1.6 0 0 0 0-.21v.09-.19.09-.33.1a1.14 1.14 0 0 0 .1-.19c.12-.19-.11.1 0 0a1.52 1.52 0 0 0 .18-.17s-.17.11-.08.06l.14-.08s.13 0 0 0h.16c.09 0 .18 0 0 0h.34-.08a2.27 2.27 0 0 1 .25.06c-.14-.05 0 0 0 0l.08.05c.19.1-.16-.15 0 0a1 1 0 0 0 1.42 0 1 1 0 0 0 0-1.41Zm-1.12-4.05a.5.5 0 0 1 .14-.35c-.13.15.12-.16 0 0 .06-.07.16-.07 0 0s.19 0 0 0c.27 0 0 0 0 0 .17 0-.07 0-.1-.06a3.39 3.39 0 0 1-.39-.27 2.54 2.54 0 0 0-2.46-.55 2.43 2.43 0 0 0-1.26 1.77c0 .12-.05.1 0 0a1.14 1.14 0 0 1-.1.19l.06-.09c-.08.07-.07.06 0 0s.15 0 0 0 .18-.06 0 0-.09 0 0 0 .09 0 0 0c.3.12 0 0 0 0l.1.07c-.07-.08-.06-.06 0 0a1 1 0 0 0-1.73 1 2 2 0 0 0 2.65.62 2.23 2.23 0 0 0 .86-1.26c0-.11.07-.41.16-.49v.11l.07-.13c-.09.11-.1.12 0 0-.11.07-.12.09-.06.05s-.13 0 0 0-.15-.07.09 0 .11 0 0 0l.13.07.27.17a4.38 4.38 0 0 0 1.24.71 2 2 0 0 0 1.53-.15 1.65 1.65 0 0 0 .87-1.38 1 1 0 0 0-1-1 1 1 0 0 0-1 1Zm-2.07-3.6h-.88a.73.73 0 0 0-.38.08.94.94 0 0 0-.53.53.86.86 0 0 0-.09.39v.26a1 1 0 0 0 .26.45l.2.15a1 1 0 0 0 .5.14h.88a.73.73 0 0 0 .38-.08.69.69 0 0 0 .32-.21.75.75 0 0 0 .21-.32.86.86 0 0 0 .09-.39v-.26a.94.94 0 0 0-.26-.44l-.2-.16a1 1 0 0 0-.5-.14Z" transform="translate(0 -6.28)"/><path class="cls-4" d="M122.65 123.86c-6.43 6.83-9.58 12.31-10.19 21.52a37.18 37.18 0 0 0 2.45 16.88c3.29 7.81 10 14 17.94 17.43a47.24 47.24 0 0 0 25.4 3 38.41 38.41 0 0 0 10.75-3 32.71 32.71 0 0 0 13.31-11.77 37.4 37.4 0 0 0 5.48-27.3 28.41 28.41 0 0 0-4.43-11 32.56 32.56 0 0 0-6.81-6.86 42.26 42.26 0 0 0-15.85-7.92 41.33 41.33 0 0 0-22.8 1.51c-7.29 2.5-9.3 2.71-15.25 7.53" transform="translate(0 -6.28)"/><path class="cls-9" d="M173.76 174.18a36.47 36.47 0 0 1-1.4 3.62c-.62.4-1.26.77-1.91 1.11-.47.27-1 .51-1.45.73a38.32 38.32 0 0 1-10.75 3 47.24 47.24 0 0 1-25.4-3c-7.89-3.42-14.65-9.62-17.94-17.43a37.18 37.18 0 0 1-2.45-16.88 30.18 30.18 0 0 1 2.64-11.07c.23-.52.49-1 .77-1.54l.15-.16c.52-.47 1.31.29.78.77a2.09 2.09 0 0 0-.65 1.64c.1.84 1.13.73 1.71.48a21.38 21.38 0 0 0 3.53-2.26c1.16-.81 2.29-1.63 3.47-2.41a20.89 20.89 0 0 1 7.35-3.35 3.42 3.42 0 0 1 3.36.76 3.29 3.29 0 0 1 .49 3.2 14.88 14.88 0 0 1-2.3 3.6 71.29 71.29 0 0 0-2.57 3.84 70.38 70.38 0 0 0-4.35 8.12c-.64 1.41-1.27 2.85-1.78 4.31a2.32 2.32 0 0 0-.16 1.63c.35.67 1.5.2 2 .07a40.24 40.24 0 0 1 4.6-1 2.06 2.06 0 0 1 2.5 1.33 4 4 0 0 1-.37 2 12.85 12.85 0 0 0-.54 2.2c-.09.55-.49 2 .49 1.83a4 4 0 0 0 1.55-.78 92.72 92.72 0 0 1 16.71-8.85 8.32 8.32 0 0 1 3.76-1 2.13 2.13 0 0 1 2 2.08 8.34 8.34 0 0 1-1 3.59 22.06 22.06 0 0 1-1.91 3.38c-1.46 2.21-3.17 4.25-4.61 6.46a18.94 18.94 0 0 0-1.89 3.52c-.39 1 .91.8 1.57.67a9.42 9.42 0 0 0 1.8-.57 27.17 27.17 0 0 1 3.78-1.48c1.12-.27 2.5-.4 3.27.6a3 3 0 0 1 0 3.2c-.7 1.33-1.69 2.38-2.13 3.83-.21.67-.56 1.72.37 2a2.51 2.51 0 0 0 1.9-.59c1.3-.86 2.59-1.72 3.95-2.5a45.93 45.93 0 0 1 4.2-2.13 15.24 15.24 0 0 1 4.26-1.55 2.9 2.9 0 0 1 2.94 1.25c.75 1.22.04 2.6-.34 3.73Z" transform="translate(0 -6.28)"/><path class="cls-2" d="M207.13 102.83a6.12 6.12 0 0 0-3.9-1.6 26.07 26.07 0 0 0-10.65 1.56A65.79 65.79 0 0 0 168 117.16l-.25.16a43.67 43.67 0 0 1 5.73 3.24l.16-.1c4.62-5 9.87-9.9 16.56-11.44 1.22-.27 2.75-.32 3.47.69a3 3 0 0 1 .19 2.44c-1.29 5.44-5.43 9.75-9.48 13.69-.75.73-1.51 1.46-2.27 2.17a436.64 436.64 0 0 1-56.32 45.6l-1.44 1a18.46 18.46 0 0 1-5.8 2.73c-2.66.62-5.77.13-7.57-1.89-2.11-2.37-2-6-1-9 1.51-4.53 1.32-3.2 3.63-7.14l.16-.11a35.7 35.7 0 0 1-1.31-7.19c-9.69 8.85-14.61 13.48-18.85 25.76-1.47 4.22-2 9.43 1.19 12.64a10.42 10.42 0 0 0 5.39 2.66c7.83 1.6 15.58-2.44 22.48-6.41 3.71-2.14 7.42-4.3 11.11-6.51 19.31-11.53 38.06-24.15 53.93-39.76 1.86-1.83 3.69-3.71 5.46-5.62 7.06-7.62 13.62-16.4 15-26.59.24-1.9.23-3.98-1.04-5.35Z" transform="translate(0 -6.28)"/><path class="cls-4" d="M107.18 162.14a41.16 41.16 0 0 0-5.66 9 17.86 17.86 0 0 0-1.4 10.37 7.38 7.38 0 0 0 .75 2.19c1.25 2.17 4 3.07 6.54 3.24 2.28.15 4.81-.25 6.3-1.94.58-.66.94-1.69.37-2.35a2.49 2.49 0 0 0-1.2-.63 32.81 32.81 0 0 1-6-2.56 6.3 6.3 0 0 1-2.65-2.26 5.8 5.8 0 0 1-.52-2.94 22.06 22.06 0 0 1 3.47-11.34m78.95-28.28c7.48-6.51 15.26-13.47 18.35-22.78a8.1 8.1 0 0 0 .32-5.33c-.65-1.7-2.68-3-4.39-2.31a3.78 3.78 0 0 0-2.07 3.26 21.73 21.73 0 0 0 .35 4 19.82 19.82 0 0 1-2.76 11.62 48.29 48.29 0 0 1-7.55 9.58m-64.64 49.64a258 258 0 0 0 38.06-25.68q5.13-4.19 10.06-8.63c.95-.86-.47-2.27-1.42-1.41A254.25 254.25 0 0 1 134 174q-5.57 3.44-11.29 6.6c-1.13.62-.12 2.35 1 1.73Zm37.16-29.24a101.93 101.93 0 0 0 12.35-11.14c.89-.94-.53-2.35-1.41-1.41a98.1 98.1 0 0 1-12 10.82 1 1 0 0 0-.36 1.37 1 1 0 0 0 1.37.36Z" transform="translate(0 -6.28)"/><path class="cls-5" d="M986.18 188.68c0 1 0 2-.08 3a36.09 36.09 0 0 1-.66 4.81c-.13.62-.27 1.24-.43 1.85a35.48 35.48 0 0 1-2.59 7c-.31.63-.65 1.24-1 1.84a26.44 26.44 0 0 1-13.77 12c-5.41 1.94-11.35 1.86-17.1 1.42-2-.16-4.1-.38-6.14-.7h-.07a50 50 0 0 1-9.07-2.2 26.13 26.13 0 0 1-11.51-7.56 23.71 23.71 0 0 1-4-7.05 30.84 30.84 0 0 1-1.21-3.94c-.19-.78-.35-1.56-.49-2.35a36.68 36.68 0 0 1-.47-8.51c0-.52.07-1 .13-1.56a37.91 37.91 0 0 1 1.06-6c.15-.57.31-1.13.49-1.69a34.4 34.4 0 0 1 7.35-13c.16-.19.32-.37.49-.54s.42-.45.65-.67c.47-.46 1-.91 1.51-1.35a27.53 27.53 0 0 1 6.31-4.08l-.34.25c10.78-5.45 26.23-7.14 34.75-1.83a34.5 34.5 0 0 1 2.63 1.85c.42.32.84.67 1.25 1a33.4 33.4 0 0 1 5.84 6.61c.3.44.59.9.86 1.36a38.11 38.11 0 0 1 4.1 9.3c.14.51.28 1 .4 1.54a40.1 40.1 0 0 1 1.11 7.31c-.01.63 0 1.26 0 1.89Z" transform="translate(0 -6.28)"/><path class="cls-9" d="M973.82 160.67a26.74 26.74 0 0 1-35.8-.52c-.76-.7.39-1.82 1.14-1.12a25.11 25.11 0 0 0 33.41.62c.43.35.84.67 1.25 1.02Z" transform="translate(0 -6.28)"/><path class="cls-9" d="M980.52 168.64a37.3 37.3 0 0 1-7.84 4.72 52.06 52.06 0 0 1-23.68 4.13c-7.92-.42-16.46-3.46-19.57-11.22-.38-1 1.2-1.36 1.57-.42a15.46 15.46 0 0 0 8.53 8.09 31.26 31.26 0 0 0 12.39 2 55.11 55.11 0 0 0 11-1.14 40.16 40.16 0 0 0 16.73-7.55c.35.47.6.93.87 1.39Z" transform="translate(0 -6.28)"/><path class="cls-9" d="M986.18 188.68a22.75 22.75 0 0 1-8.8 2.67 65 65 0 0 1-16.89 0c-1.17-.15-2.32-.35-3.47-.59a45.44 45.44 0 0 1-12-4.17c-8.42-4.36-15.34-11.77-17.89-20.86a.58.58 0 0 1 0-.29.76.76 0 0 1 .65-.67.75.75 0 0 1 .94.54 30.15 30.15 0 0 0 7.58 12.86c6.87 7 16.41 10.81 26.22 11.8a61.79 61.79 0 0 0 15.55-.32 18.37 18.37 0 0 0 8.13-2.9c-.03.67-.02 1.3-.02 1.93Z" transform="translate(0 -6.28)"/><path class="cls-9" d="M985 179.48c-2 .75-3.94 1.58-6 2.19a48.26 48.26 0 0 1-6.83 1.46c-1 .15-1.46-1.38-.43-1.53a50.52 50.52 0 0 0 12.13-3.39l.72-.27c.17.51.31 1.06.41 1.54Zm-24.51 11.91a.86.86 0 0 1-.41.26 67.79 67.79 0 0 1-23.08 2.43c-6.65-.46-14.17-1.49-19.46-5.81 0-.52.07-1 .13-1.56a.84.84 0 0 1 .72.19 21.1 21.1 0 0 0 8.76 4.13 57.6 57.6 0 0 0 10.61 1.51A66.68 66.68 0 0 0 957 190.8c.89-.21 1.76-.44 2.63-.68a.8.8 0 0 1 .86 1.27Z" transform="translate(0 -6.28)"/><path class="cls-9" d="M985.44 196.5c-.13.62-.27 1.24-.43 1.85a70 70 0 0 1-15.7 3.92 94.26 94.26 0 0 1-28-.36c-8.46-1.41-16.78-4.44-23.16-10.21-.77-.7.38-1.82 1.15-1.12a36.79 36.79 0 0 0 12.12 7.15c8.06 2.94 16.82 3.78 25.38 3.77a77.34 77.34 0 0 0 28.51-5 .16.16 0 0 1 .13 0Z" transform="translate(0 -6.28)"/><path class="cls-9" d="M982.42 205.31c-.31.63-.65 1.24-1 1.84a50.58 50.58 0 0 1-11.37 3.85c-.74.17-1.48.32-2.23.45l-.44.08a96.2 96.2 0 0 1-14.29 1.29 131.51 131.51 0 0 1-14-.19c-4.58-.37-9.17-1.37-13-3.91a31.92 31.92 0 0 1-6.3-5.69 30.84 30.84 0 0 1-1.21-3.94c2.79 3.46 5.77 6.94 9.75 9.11s8.58 2.79 13.07 3 9 .17 13.55 0c9.18-.35 18.52-1.67 26.73-5.94a.82.82 0 0 1 .74.05Z" transform="translate(0 -6.28)"/><path class="cls-9" d="M968.73 210.78a34.46 34.46 0 0 1-32.53 5.84c-1-.34-1.42 1.2-.43 1.53a36.13 36.13 0 0 0 34.11-6.25c.8-.66-.36-1.78-1.15-1.12Z" transform="translate(0 -6.28)"/><path class="cls-10" d="M470.31 157.76c-5.6 2.4-12.67 9-15.16 14.41s-3.39 11.49-3.65 17.46c-.13 3-.05 6.24 1.58 8.82a16.62 16.62 0 0 0 3.16 3.39q5 4.4 9.95 8.73a23.46 23.46 0 0 0 4.79 3.5 24.32 24.32 0 0 0 5.82 1.76 45.52 45.52 0 0 0 11.94 1.41 26.67 26.67 0 0 0 18-9.07 36.33 36.33 0 0 0 8.26-18.31 30.19 30.19 0 0 0-.42-13.21c-1.85-6.55-6.67-12.11-12.64-15.61a40.58 40.58 0 0 0-19.94-5.12c-6.48-.08-13.39 1.27-18 5.74" transform="translate(0 -6.28)"/><path class="cls-2" d="M474.64 165.72a4.86 4.86 0 0 1 3.07-2.1 19.13 19.13 0 0 1 4-.79 4.7 4.7 0 0 1 3.08.53 11.55 11.55 0 0 1 1.71 1.91c1.35 1.45 3.48 1.89 5.48 2.06s4.07.15 5.89 1a5.91 5.91 0 0 1 3 2.93 5.21 5.21 0 0 1-1.42 5.92 5.52 5.52 0 0 1-6.21.46 1.36 1.36 0 0 0-1-.32 1.1 1.1 0 0 0-.45.32 11 11 0 0 0-1.37 1.67c-1 1.45-1.75 3.22-3.36 4a3.75 3.75 0 0 1-4-.56 3.55 3.55 0 0 1-.92-3.84 3.11 3.11 0 0 0 .46-1.61c-.12-.75-.95-1.14-1.65-1.48a12 12 0 0 1-5.72-5.95c-.57-1.32-.81-3.05.29-4m11.89 36.4a6.63 6.63 0 0 1 2.51-2.69 1.22 1.22 0 0 1 .68-.24 1.13 1.13 0 0 1 .91.74 10.48 10.48 0 0 0 .43 1.15c.74 1.32 2.77 1.15 4 2.07a2.82 2.82 0 0 1 .63 3.59 3.81 3.81 0 0 1-3.46 1.72 4.39 4.39 0 0 0-1.2 0c-1.11.24-1.54 1.55-2.41 2.27a3.51 3.51 0 0 1-2.83.57 10.15 10.15 0 0 1-2.74-1.1 1.47 1.47 0 0 1-.64-.5 1.32 1.32 0 0 1 .17-1.25 11 11 0 0 1 1.11-1.67 4.74 4.74 0 0 0 1.3-2.18 1.49 1.49 0 0 1 .15-.66 1 1 0 0 1 .36-.32l1.52-1m-24.9-8.84a2.57 2.57 0 0 1 .13-1.6 1.16 1.16 0 0 1 1.37-.64c.56.22.75.93 1.26 1.25.78.49 1.82-.15 2.73 0a1.87 1.87 0 0 1 1.25 1 3.82 3.82 0 0 1 .35 1.61 5.8 5.8 0 0 1-.56 2.93 3.43 3.43 0 0 1-2.31 1.84 1.49 1.49 0 0 1-1.54-.46c-.5-.74.15-2-.59-2.52a2 2 0 0 0-1-.24 2.52 2.52 0 0 1-1.79-1.12 1.81 1.81 0 0 1 .07-2m-.37-16.92a5.8 5.8 0 0 1 .34-.94l.15-.28s.18-.23.1-.14l.1-.1s.23-.2.07-.08l.23-.15c.15-.09-.05 0 .05 0l.22-.06c-.2.05 0 0 .08 0-.13 0-.09 0 0 0h-.05a.22.22 0 0 1-.09-.1c0-.06 0 0 0 0v-.08a1.05 1.05 0 0 1 .06.24 2.54 2.54 0 0 0 .33 1 1.9 1.9 0 0 0 1.1.8 2.81 2.81 0 0 0 1 .08c.2 0 .39-.06.58-.07h.45a1 1 0 0 0 .54-1.93 3.84 3.84 0 0 0-1.51 0h-.57c.07 0 .07 0 0 0 .09.08.1.08 0 0l.07.07c0 .12 0 .12 0 0v-.08c0-.18 0-.37-.1-.55a1.82 1.82 0 0 0-.9-1.2 2.59 2.59 0 0 0-2.84.53 5.22 5.22 0 0 0-1.34 2.46 1 1 0 0 0 1.93.54Zm.33 3.19a1.91 1.91 0 0 0 1 1.74 3.09 3.09 0 0 0 2 .24 5.65 5.65 0 0 0 3-1.45 1 1 0 0 0-1.41-1.41s-.22.15-.22.18.16-.11 0 0l-.11.08a5.48 5.48 0 0 1-.52.31l-.26.12c-.12.06.17-.06 0 0h-.13a4 4 0 0 1-.59.17 2.33 2.33 0 0 0-.28 0h.05-.44.05-.27s.15.11 0 0 .11.12 0 0a.76.76 0 0 0-.09-.09c-.08-.07.08.14 0 .05s-.09-.16 0 0 0-.11 0 .08v-.05a1 1 0 0 0-1-1 1 1 0 0 0-1 1Zm36.58 9.75c-.23-.92 1-1.4 1.67-1.56a1.79 1.79 0 0 1 1.12 0c.37.18.43.74.63 1.07a5.14 5.14 0 0 0 2.7 1.78 6.81 6.81 0 0 0 1.88.51 7.93 7.93 0 0 0 2.06-.16 1 1 0 0 0 .7-1.23 1 1 0 0 0-1.23-.69 4.53 4.53 0 0 1-2-.05 9.8 9.8 0 0 1-1.78-.73c-.55-.3-.65-.68-.92-1.22a2.56 2.56 0 0 0-1.48-1.22c-2.41-.76-5.93 1.26-5.24 4a1 1 0 0 0 1.93-.53Zm2.3 5.25v.53a5.45 5.45 0 0 0 0 .7 2.21 2.21 0 0 0 .92 1.65 3 3 0 0 0 3 .06c.45-.2.86-.47 1.29-.68l.18-.08c-.1 0-.09 0 0 0l.36-.1c.11 0 .12 0 0 0h.18a1.54 1.54 0 0 0 .64-.15c.64-.35.71-1.23.72-1.88a5 5 0 0 0-.24-1.68 1 1 0 0 0-1.23-.7 1 1 0 0 0-.7 1.23 5.09 5.09 0 0 1 .14.56v.35a4.69 4.69 0 0 1 0 .53v.21c0 .13 0 .12 0 0l.36-.36c.32-.17.42-.11.18-.09h-.4a3.43 3.43 0 0 0-.46.11 7 7 0 0 0-1.05.47c-.27.15-.54.31-.83.45-.05 0-.19.09-.06 0l-.26.09-.18.05h-.14.08c-.05.06-.29 0-.36 0 .08 0 .18 0 0 0s-.15 0-.18-.05.16.08 0 0-.15-.19-.06-.05 0-.07 0-.09c.09.19 0 0 0-.09s0 .13 0 0v-.49a5.82 5.82 0 0 0 0-1.1 1 1 0 0 0-1.23-.7 1 1 0 0 0-.7 1.23ZM478.46 193c0-.14.06-.27.1-.4a.64.64 0 0 1 0-.07v.06s.07-.11.09-.16-.13.12 0 0c-.1.07-.12.09-.06.05s0 0-.07 0c.18-.06-.15 0 0 0h-.2c-.04 0-.07-.06 0 0l.14.15.32.37.6.72a3.8 3.8 0 0 0 .66.67 1.74 1.74 0 0 0 .53.26h.6-.09l.08.06c-.06 0-.15-.14 0 0a1.27 1.27 0 0 0 .18.29c.06.13.12.25.17.37a1 1 0 0 0 1.73-1 2.62 2.62 0 0 0-1.54-1.58 2.46 2.46 0 0 0-.46-.08h-.06c-.23 0 .16.1 0 0 .2.12 0 0 0 0-.25-.27-.46-.57-.7-.84a8 8 0 0 0-.71-.82 1.69 1.69 0 0 0-1.54-.46 2.26 2.26 0 0 0-1.58 1.93 1 1 0 0 0 1.93.53Zm.01 4a1.75 1.75 0 0 0 0 1.73 1.93 1.93 0 0 0 1.41.91 2.53 2.53 0 0 0 1.57-.32 4.29 4.29 0 0 0 1-.87 1.05 1.05 0 0 0 .29-.7 1 1 0 0 0-.29-.71 1 1 0 0 0-.71-.29 1 1 0 0 0-.71.29 3.78 3.78 0 0 1-.54.52l.2-.15a2.2 2.2 0 0 1-.47.27l.24-.1a1.66 1.66 0 0 1-.38.11h.26a1 1 0 0 1-.35 0h.26a1.11 1.11 0 0 1-.26-.07l.24.1a1 1 0 0 1-.22-.13l.2.16a1 1 0 0 1-.14-.15l.15.21a2.12 2.12 0 0 1-.11-.21l.1.24a.7.7 0 0 1-.06-.19v.26a.61.61 0 0 1 0-.19v.26a.83.83 0 0 1 0-.15l-.1.24v-.06a1.09 1.09 0 0 0 .1-.77 1 1 0 0 0-.46-.6 1 1 0 0 0-1.37.36Zm28.97-26.43a4.1 4.1 0 0 0-1.56 2.1 2.3 2.3 0 0 0 .66 2.25c.55.48 1.36.42 1.67 1.16a5.32 5.32 0 0 1 .26 2.06c0 .92-.79 1.42-1 2.28a2 2 0 0 0 .09 1.39 1.72 1.72 0 0 0 .37.55c.09.1.32.2.37.32.22.52-1.17 1.18-1.48 1.33a2.74 2.74 0 0 1-2.4.1c-1.14-.6-2.15 1.13-1 1.73A5.24 5.24 0 0 0 509 185a2.88 2.88 0 0 0 1.29-2.4 2 2 0 0 0-.51-1.24 2 2 0 0 0-.3-.28c-.18-.11-.21-.15-.09-.13 0-.17.23-.4.32-.52a4.22 4.22 0 0 0 .77-2.73 6.72 6.72 0 0 0-.46-2.47 3 3 0 0 0-1.76-1.67c-.33-.12-.53-.14-.38-.53s.66-.77 1-1.05c1-.82-.43-2.23-1.42-1.41Zm-51.36 18.53a1 1 0 0 0 0-2 1 1 0 0 0 0 2Z" transform="translate(0 -6.28)"/><path class="cls-2" d="m457.06 187.66-.11-.35a2.21 2.21 0 0 0-.08-.37c0 .09 0 .19 0 0a.85.85 0 0 0 0-.16c0-.09 0-.09 0 0s0 .09 0 0v-.06c0-.08 0-.08 0 0s0 .08 0 0c-.08.1-.1.13-.05.07l.07-.06c.12-.13-.13.07 0 0l.14-.09.33-.16c.19-.08 0 0 0 0l.22-.07c.15-.06 0 0-.1 0s-.07 0 0 0l-.13-.05c0 .06.24.15.3.2l.66.47a16.59 16.59 0 0 0 1.47.86 1 1 0 1 0 1-1.73 14.22 14.22 0 0 1-1.72-1 6.48 6.48 0 0 0-.76-.53 1.8 1.8 0 0 0-1.49 0 2.83 2.83 0 0 0-1.84 1.55 3.23 3.23 0 0 0 .12 2.08 1 1 0 1 0 1.93-.53Z" transform="translate(0 -6.28)"/><path class="cls-2" d="M458.17 190.36a3.87 3.87 0 0 0 .65.23 3.31 3.31 0 0 0 .7.06 2.84 2.84 0 0 0 1.33-.38 1 1 0 0 0 .46-.59 1 1 0 0 0-.1-.77 1 1 0 0 0-.6-.46 1 1 0 0 0-.77.1 1.11 1.11 0 0 1-.19.09l.24-.1a1.57 1.57 0 0 1-.47.13h.26a1.74 1.74 0 0 1-.51 0h.27a1.76 1.76 0 0 1-.45-.12l.24.1h-.05a.71.71 0 0 0-.37-.12.78.78 0 0 0-.4 0 1 1 0 0 0-.6.46 1 1 0 0 0 .36 1.37Zm8.97-23.46a1 1 0 0 0 0-2 1 1 0 0 0 0 2Zm7.1 14.89a10.24 10.24 0 0 1 1.12.73l-.21-.15a1.78 1.78 0 0 1 .32.29l-.16-.2a1.74 1.74 0 0 1 .11.18l-.1-.23a1.17 1.17 0 0 1 .05.2v-.27a.94.94 0 0 1 0 .29v-.27a2.24 2.24 0 0 1-.14.46l.1-.23c-.06.13-.13.26-.2.39a1 1 0 0 0-.1.77 1 1 0 0 0 .46.6 1 1 0 0 0 1.37-.36 2.38 2.38 0 0 0 .2-2.5 3.54 3.54 0 0 0-1-.89c-.27-.19-.56-.37-.85-.54a1 1 0 0 0-1 1.73Zm-1.58 3.28a2.08 2.08 0 0 0-.23 1.11 2.14 2.14 0 0 0 .11.56 3.92 3.92 0 0 0 .16.36 2.85 2.85 0 0 0 .25.33.75.75 0 0 0 .32.21.86.86 0 0 0 .39.09.82.82 0 0 0 .38-.09.78.78 0 0 0 .33-.21 1 1 0 0 0 .29-.7v-.27a1 1 0 0 0-.25-.44l.16.2a1.49 1.49 0 0 1-.14-.24l.1.24a1.57 1.57 0 0 1-.08-.29v.26a1.4 1.4 0 0 1 0-.29v.26a1.38 1.38 0 0 1 .08-.27l-.1.24a.85.85 0 0 0 .12-.38.78.78 0 0 0 0-.4.75.75 0 0 0-.18-.34.84.84 0 0 0-.28-.25 1 1 0 0 0-.77-.1.93.93 0 0 0-.6.46Z" transform="translate(0 -6.28)"/><path class="cls-4" d="M1178.65 237.53a17.08 17.08 0 0 1-5.19 4.6 18.63 18.63 0 0 1-11.64 2.4h-.21a15.38 15.38 0 0 1-2.22-.47 18.81 18.81 0 0 1-7.93-4.51c.07-.08.15-.14.21-.22.89-.89-.33-2.45-1.23-1.55l-.34.35a17.68 17.68 0 0 1-2.87-4.49 15.55 15.55 0 0 1 .47-13.93 16.94 16.94 0 0 1 8.42-6.85 23.41 23.41 0 0 1 2.83-.93 22.75 22.75 0 0 1 13 .35c-.24.27-.46.55-.69.84-.77 1 .85 2.19 1.62 1.17.32-.42.67-.83 1-1.22a16.39 16.39 0 0 1 6.32 5.29 14.25 14.25 0 0 1 1.14 1.88 6.45 6.45 0 0 1 .29.59c.06.12.11.25.17.37a1.22 1.22 0 0 1 .07.17 2.09 2.09 0 0 1 .17.41c.08.19.15.39.22.58 1.74 5.01-.32 10.71-3.61 15.17Z" transform="translate(0 -6.28)"/><path class="cls-6" d="M1134.25 220.62a1.5 1.5 0 0 0 0-3 1.5 1.5 0 0 0 0 3Z" transform="translate(0 -6.28)"/><path class="cls-2" d="M1151.46 239.52a26.67 26.67 0 0 0-1.89 2.2c-.55-.34-1.1-.71-1.64-1.08a26.21 26.21 0 0 1 2.17-2.54 14 14 0 0 0 1.36 1.42Z" transform="translate(0 -6.28)"/><path class="cls-2" d="M1173.46 242.13a18.63 18.63 0 0 1-11.64 2.4h-.21l-1.84 2-.89-.33c-.36-.13-.73-.27-1.09-.42.54-.58 1.07-1.16 1.6-1.75a18.81 18.81 0 0 1-7.93-4.51c.07-.08.15-.14.21-.22.89-.89-.33-2.45-1.23-1.55l-.34.35a17.68 17.68 0 0 1-2.87-4.49 15.55 15.55 0 0 1 .47-13.93 16.94 16.94 0 0 1 8.42-6.85 4.61 4.61 0 0 1 .77.46l2.35-.79c.55-.19 1.24-.36 1.68 0s.32 1.19.08 1.77c-1.29 3.08-3.76 5.52-6.21 7.83a5.2 5.2 0 0 0-1.29 1.6 1.68 1.68 0 0 0 .32 1.91c.88.73 2.2 0 3.12-.64s2.29-1.33 3.11-.53c-1.15 2.26-2.32 4.51-3.47 6.76 2.47-.8 4.21-2.89 6.08-4.66s4.32-3.43 6.87-3a1.32 1.32 0 0 1 1.09.69 1.42 1.42 0 0 1 0 .79c-1.21 4.57-5.9 7.6-7.34 12.1a.93.93 0 0 0 0 .83.82.82 0 0 0 .5.24 2 2 0 0 0 .74 0 10.86 10.86 0 0 0 2.68-1.26 3.13 3.13 0 0 1 1.33-.31c.85 0 1.65.33 1.75 1.11.13 1.08-1.26 2.21-.59 3.08.8 1.07 3.15-.41 3.69.8a.93.93 0 0 1 .08.52Z" transform="translate(0 -6.28)"/><path d="M1151.67 239.3c-.06.08-.14.14-.21.22a14 14 0 0 1-1.36-1.42l.34-.35c.9-.9 2.12.66 1.23 1.55Z" transform="translate(0 -6.28)" style="fill:none"/><path class="cls-3" d="M1175.77 227.93c-2.33 3-4.75 5.88-7.23 8.74-2.28 2.64-4.6 5.24-6.93 7.83l-1.84 2v.05a31.9 31.9 0 0 1-7.48 6.62c-2.32 1.33-6.14 2.75-8.09.06-1.64-2.31-.25-5.71.86-7.93a27.81 27.81 0 0 1 2.92-4.69 26.21 26.21 0 0 1 2.17-2.54 14 14 0 0 0 1.36 1.42 26.67 26.67 0 0 0-1.89 2.2 25.82 25.82 0 0 0-3 5 10 10 0 0 0-1.11 3.79c-.07 2.09 1.57 2.63 3.42 2.07a17.48 17.48 0 0 0 6.85-4.65c.71-.71 1.4-1.42 2.07-2.16.54-.58 1.07-1.16 1.6-1.75.87-1 1.72-2 2.59-2.92l2.55-2.87c3.47-3.92 6.87-7.91 10.08-12.05 2-2.56 3.87-5.18 5.65-7.86q1.49-2.22 2.85-4.53a11.24 11.24 0 0 0 1.47-3.16c.27-1.18 0-2.51-1.4-2.75a5.54 5.54 0 0 0-3.4.86 23.07 23.07 0 0 0-5.87 4.33l-.9-.4c-.35-.14-.7-.27-1.06-.39a18.57 18.57 0 0 1 3.62-3.23 21.08 21.08 0 0 1 4.77-2.72c2.79-1 6.26-.1 6.36 3.29.08 3-2.33 6-3.89 8.44-.47.74-.95 1.45-1.44 2.18-1.81 2.64-3.7 5.21-5.66 7.72Z" transform="translate(0 -6.28)"/><path class="cls-4" d="m1171.81 213.32-.29.71-.2.16-.24.1h-.26a2.72 2.72 0 0 1 .49 0h-.27.19a1.14 1.14 0 0 0 .77-.1 1.07 1.07 0 0 0 .46-.6 1.08 1.08 0 0 0-.1-.77 1 1 0 0 0-.6-.46 2.64 2.64 0 0 1-.48-.14v1.93h-.26.29-.26a3.55 3.55 0 0 1 .82.26l-.24-.1a9.3 9.3 0 0 1 1 .47 1 1 0 0 0 .77.1 1 1 0 0 0 .59-.46 1 1 0 0 0-.35-1.37 10.82 10.82 0 0 0-1.29-.61 2.76 2.76 0 0 0-.55-.19 3.12 3.12 0 0 0-.52-.08 2.24 2.24 0 0 0-.52.05l-.24.1a.7.7 0 0 0-.28.26 1 1 0 0 0-.21.6 1.14 1.14 0 0 0 .13.51 1.06 1.06 0 0 0 .6.46 3.36 3.36 0 0 0 .48.14l.53-1.93c-.27 0-.55-.08-.82-.1a1.17 1.17 0 0 0-.66.13 1.06 1.06 0 0 0-.53.91 1 1 0 0 0 1 1 1 1 0 0 0 1-1Z" transform="translate(0 -6.28)"/><path class="cls-4" d="m1173.39 213.24-1.3-.09a3.92 3.92 0 0 0-1.45 0 1 1 0 0 0 .26 2 1 1 0 0 0 .38-.06 1.14 1.14 0 0 0 .6-.46 1.08 1.08 0 0 0 .1-.77 1.06 1.06 0 0 0-.46-.6 1 1 0 0 0-.77-.1h-.07.26l.27 2h.17-.27a7.2 7.2 0 0 1 1.14 0l1.18.08a1 1 0 0 0 .71-.3 1 1 0 0 0 .29-.7 1 1 0 0 0-.29-.71 1.1 1.1 0 0 0-.71-.29Z" transform="translate(0 -6.28)"/><path class="cls-4" d="M1170.4 214a10.36 10.36 0 0 1 2.17.57h-.09l.12.06.24.12c.15.08.3.16.44.25l.19.13.1.08a4.51 4.51 0 0 1 .39.37 1 1 0 0 0 1.41 0 1 1 0 0 0 0-1.42 7.47 7.47 0 0 0-4.4-2 1 1 0 0 0-.77.1 1 1 0 0 0 .24 1.82Z" transform="translate(0 -6.28)"/><path class="cls-4" d="M1171 214a7.76 7.76 0 0 1 1.42.43l-.24-.1a7.73 7.73 0 0 1 1.55.9l-.2-.16.12.1a1.08 1.08 0 0 0 .71.29 1 1 0 0 0 1-1 .94.94 0 0 0-.3-.7 8 8 0 0 0-3.52-1.68 1 1 0 0 0-.77.1 1 1 0 0 0 .23 1.82Z" transform="translate(0 -6.28)"/><path class="cls-4" d="M1174.28 213.91a3.51 3.51 0 0 0-1.35-.81 6.24 6.24 0 0 0-1.47-.38 2.68 2.68 0 0 0-2.66 1.2 1 1 0 1 0 1.72 1l.06-.1c-.1.13-.12.15 0 .07l.08-.08c.08-.07.06 0-.07.05a1.06 1.06 0 0 0 .2-.12h-.08.11a1.55 1.55 0 0 0 .23-.06h-.15.54-.06a7.3 7.3 0 0 1 1 .3h.12-.06l.22.11s.2.14.22.14-.14-.11-.06 0l.09.09a1 1 0 0 0 1.41 0 1 1 0 0 0 0-1.42Z" transform="translate(0 -6.28)"/><path class="cls-2" d="M1149.87 237.18a3.38 3.38 0 0 0 1 1.53 8.16 8.16 0 0 0 1.54 1 1.09 1.09 0 0 0 .77.1 1.1 1.1 0 0 0 .6-.46 1 1 0 0 0-.36-1.37 8.47 8.47 0 0 1-1.23-.73l.2.16a3.26 3.26 0 0 1-.53-.52l.15.2a3 3 0 0 1-.29-.49l.1.24-.06-.16a1.06 1.06 0 0 0-.46-.6 1 1 0 0 0-.77-.1 1 1 0 0 0-.59.46 1 1 0 0 0-.11.77Z" transform="translate(0 -6.28)"/><path class="cls-2" d="M1149.76 237.48a5.79 5.79 0 0 0 1.5 1.58 5.09 5.09 0 0 1 .71.68 2 2 0 0 0 .8.56 1.32 1.32 0 0 0 .48.09 1.46 1.46 0 0 0 .67-.18 1 1 0 0 0 .46-.6 1.08 1.08 0 0 0-.1-.77 1.06 1.06 0 0 0-.6-.46 1.21 1.21 0 0 0-.77.1l.24-.1h-.09.27-.09.27a.55.55 0 0 1-.17 0l.24.1-.12-.07.2.16c-.19-.16-.33-.37-.51-.54s-.36-.32-.55-.47a5.92 5.92 0 0 1-1-1l.16.21a2.14 2.14 0 0 1-.2-.32 1 1 0 0 0-1.73 1Z" transform="translate(0 -6.28)"/><path class="cls-2" d="M1150.28 236.14a1.21 1.21 0 0 0-.58 1 1.74 1.74 0 0 0 .24.8 3.65 3.65 0 0 0 .68.93 9.45 9.45 0 0 0 .77.65l.84.68a1.1 1.1 0 0 0 .71.29 1.05 1.05 0 0 0 .71-.29 1 1 0 0 0 .29-.71 1 1 0 0 0-.29-.7l-1-.79a5.38 5.38 0 0 1-.86-.79l.15.2a3.46 3.46 0 0 1-.36-.62l.1.24v-.12.26a.14.14 0 0 1 0-.09v.27l-.1.24-.15.2-.21.16a1.06 1.06 0 0 0 .46-.6 1.08 1.08 0 0 0-.1-.77 1 1 0 0 0-1.37-.36Z" transform="translate(0 -6.28)"/><path class="cls-6" d="M339.71 38.15a23 23 0 0 0-13.08 17 18 18 0 0 0 1.44 10.69 19.72 19.72 0 0 0 4.53 5.76 24.7 24.7 0 0 0 15.76 6.56 19.53 19.53 0 0 0 15.44-6.72 15.39 15.39 0 0 0 2.2-16.1 1.89 1.89 0 0 0-.47-.67c-.83-.65-2 .28-2.66 1.06-4.88 5.37-14.18 6.12-19.9 1.61A14.45 14.45 0 0 1 340.38 38" transform="translate(0 -6.28)"/><path class="cls-8" d="M329.85 53.24a6.16 6.16 0 0 1 1.87-5.66 1.48 1.48 0 0 1 .66-.41c.66-.18 1.28.4 1.59 1 .76 1.48.51 3.24.61 4.9s.88 3.57 2.54 3.92a19 19 0 0 1 2.16.22 3.74 3.74 0 0 1 1.34 1 7.19 7.19 0 0 1 1.82 2.57 2.58 2.58 0 0 1-.68 2.88c-1.44 1.08-4 .07-5 1.53-.5.72-.35 1.77-.93 2.42a1.87 1.87 0 0 1-2.45.06 3.53 3.53 0 0 1-1.18-2.31 1.18 1.18 0 0 0-.37-.85c-.26-.18-.63-.11-.9-.26a.91.91 0 0 1-.31-1.12 4.93 4.93 0 0 1 .7-1.07 3.76 3.76 0 0 0 .66-2.64 1.47 1.47 0 0 0-.21-.64c-.26-.35-.73-.45-1.12-.65-1.64-.83-1.66-3.07-1.45-4.86m17.73 21.82a2.15 2.15 0 0 1-.92-1.53 1.47 1.47 0 0 1 .91-1.46 2.53 2.53 0 0 1 2.17.65 2.71 2.71 0 0 0 2.17.72c.54-.16.94-.66 1.49-.79a1.25 1.25 0 0 1 1.48 1.3 1.51 1.51 0 0 1-1 1.13 3.13 3.13 0 0 1-1.61.08 1.83 1.83 0 0 0-.9 0c-.79.28-.75 1.52-1.5 1.88a1.46 1.46 0 0 1-1.48-.37 5.71 5.71 0 0 0-1.25-1M359.16 63a3.46 3.46 0 0 1 1-1.32c.29-.22 1-.77 1.12-.15s-.2 1.09-.09 1.66a1.65 1.65 0 0 0 1.05 1.14c.45.2 1 .3 1.26.73a1.2 1.2 0 0 1-.08 1.4A9.4 9.4 0 0 1 362 67.8c-.14.13-.36.42-.52.29s-.22-.45-.33-.61a1.87 1.87 0 0 0-1.6-.82 4.08 4.08 0 0 0-2 .7.5.5 0 0 0 .51.86c.56-.31 1.31-.78 2-.46.27.13.35.38.48.63a1.35 1.35 0 0 0 .61.66c.74.36 1.37-.33 1.87-.79a5.83 5.83 0 0 0 1.51-1.66 2.13 2.13 0 0 0 0-1.89 2.43 2.43 0 0 0-1.43-1.18 2.12 2.12 0 0 1-.71-.34c-.27-.24-.15-.64-.1-.95a1.92 1.92 0 0 0-.33-1.72c-.61-.6-1.48-.25-2.08.15a4.28 4.28 0 0 0-1.53 1.79c-.27.58.59 1.09.86.5Zm-11.55 3.5a3.71 3.71 0 0 0-.22-1.09c-.07-.3-.05-.35.25-.44a1.61 1.61 0 0 1 1.83.36 6 6 0 0 0 1.13 1.51 1.8 1.8 0 0 0 1.13.3 1.88 1.88 0 0 1 .58 0l.12.07c.15.08 0 .08.05 0-.32.56.55 1.07.86.51a.92.92 0 0 0-.11-1.08 1.4 1.4 0 0 0-1.12-.48c-.32 0-.69.09-1-.12a2.23 2.23 0 0 1-.49-.65 2.68 2.68 0 0 0-1.5-1.42 3.09 3.09 0 0 0-1.21 0 2.77 2.77 0 0 0-1.12.35 1.15 1.15 0 0 0-.46 1.14 6.4 6.4 0 0 1 .24 1.12.5.5 0 0 0 1 0Zm2.66 2.71a2.93 2.93 0 0 0 2.5 1 .51.51 0 0 0 .35-.15.45.45 0 0 0 .15-.35.5.5 0 0 0-.5-.5 1.31 1.31 0 0 1-.28 0h-.22c-.11 0 .09 0 0 0a3.87 3.87 0 0 1-.56-.15c-.06 0 0 0 0 0h-.06l-.13-.07-.24-.15s-.09-.06 0 0l-.11-.09a2.09 2.09 0 0 1-.2-.22.5.5 0 0 0-.71 0 .51.51 0 0 0 0 .71Zm-12.63 2.43v.09a.51.51 0 0 0 .5.5.51.51 0 0 0 .5-.5s.06-.06 0 0 .12-.07.08-.06.14 0 .09 0a.46.46 0 0 1 .4.2 1.77 1.77 0 0 1 .16.72 1.24 1.24 0 0 0 .42.82 2.59 2.59 0 0 0 .79.41l.25.13a.3.3 0 0 1 .08.08s.11.12.08.08a.64.64 0 0 1 .08.14v.07a.75.75 0 0 1 .05.16.36.36 0 0 1 0 .1.79.79 0 0 1-.12.51.5.5 0 0 0 .87.51 1.9 1.9 0 0 0-1-2.72c-.18-.08-.45-.15-.55-.28a2.13 2.13 0 0 1-.12-.7 1.52 1.52 0 0 0-1.14-1.22 1.31 1.31 0 0 0-1.58 1.14h1v-.09a.5.5 0 0 0-1 0Z" transform="translate(0 -6.28)"/><path class="cls-10" d="M291.2 223.66q-.18 6.27.23 12.54c.08 1.27 2.08 1.28 2 0q-.42-6.27-.23-12.54a1 1 0 0 0-2 0Zm18.5-1a40.89 40.89 0 0 0 1.44 4.16 41.61 41.61 0 0 0 2 4 1 1 0 0 0 1.73-1 39.18 39.18 0 0 1-1.88-3.71 36.27 36.27 0 0 1-1.34-3.93 1 1 0 0 0-1.93.54Zm13.08-9.55a113 113 0 0 0 7.16 9c.88.95 2.29-.47 1.42-1.41a105 105 0 0 1-6.85-8.6 1 1 0 0 0-1.73 1Z" transform="translate(0 -6.28)"/><path class="cls-10" d="M287.54 233.82a30.5 30.5 0 0 0 3.48 4.29 1 1 0 0 0 1.41 0 1 1 0 0 0 0-1.42c-.6-.62-1.18-1.27-1.73-1.94l-.4-.5c-.07-.09 0 0 0 0l-.09-.12-.21-.27c-.26-.35-.51-.71-.76-1.07a1 1 0 1 0-1.72 1Z" transform="translate(0 -6.28)"/><path class="cls-10" d="M292.64 237.91a25 25 0 0 0 3.72-4.23 1 1 0 0 0-.35-1.37 1 1 0 0 0-1.37.36l-.38.53-.21.28c-.08.1 0 0 0 0a1.34 1.34 0 0 1-.11.14c-.28.35-.56.69-.86 1a23.82 23.82 0 0 1-1.88 1.88 1 1 0 0 0 0 1.42 1 1 0 0 0 1.42 0Zm15.71-7.56a36.51 36.51 0 0 0 5.37 1.29A1 1 0 0 0 315 231a1 1 0 0 0-.7-1.23 37.85 37.85 0 0 1-5.37-1.3 1 1 0 1 0-.53 1.93Z" transform="translate(0 -6.28)"/><path class="cls-10" d="m315.17 230.94 1.3-4a1 1 0 0 0-.7-1.23 1 1 0 0 0-1.23.7l-1.3 4a1 1 0 0 0 .7 1.23 1 1 0 0 0 1.23-.7Zm10.09-8.53h5.39a1 1 0 0 0 0-2h-5.39a1 1 0 0 0 0 2Z" transform="translate(0 -6.28)"/><path class="cls-2" d="M318.75 196.68a62.18 62.18 0 0 0-42 18.68c7.73 7.8 20.2 10.41 30.64 7.72s19.35-13.42 22.73-23.44c-2.83-2.84-7.33-3.13-11.37-2.96Z" transform="translate(0 -6.28)"/><path class="cls-10" d="M303 190.69a8.16 8.16 0 0 0-1.91-.78c-3.07-.78-6.39 1-8.05 3.64a13.3 13.3 0 0 0-1.43 9 94 94 0 0 0 2.25 9.45c2.2.54 4.54-.12 6.66-.88s4.11-1.85 6.19-2.72a21.79 21.79 0 0 0 3.06-1.41 6.87 6.87 0 0 0 2.54-3c-1.87-4.62-4.91-10.89-9.31-13.3Z" transform="translate(0 -6.28)"/><path class="cls-2" d="M297.72 193.76c.09-.08.1-.08 0 0l.16-.1a1.71 1.71 0 0 1 .33-.17c-.18.07.16-.05.2-.06l.28-.07h1.13a5.44 5.44 0 0 1 .76.22l.2.07h.05l.34.16a11.37 11.37 0 0 1 1.41.87 1 1 0 0 0 1-1.73 8.6 8.6 0 0 0-3.52-1.6 4.7 4.7 0 0 0-3.78 1 1 1 0 0 0 0 1.42 1 1 0 0 0 1.41 0Zm7.17 2.72h.11a.86.86 0 0 0 .39-.09.75.75 0 0 0 .32-.21.85.85 0 0 0 .21-.32.73.73 0 0 0 .08-.38v-.27a1 1 0 0 0-.26-.44l-.2-.16a1 1 0 0 0-.51-.13h-.08a1 1 0 0 0-1 1v.26a.94.94 0 0 0 .26.44l.2.16a1.15 1.15 0 0 0 .51.14Z" transform="translate(0 -6.28)"/><path class="cls-4" d="M280.93 215.34v.6c0 .08 0 0 0 0 0 .08.07.16.1.25l.16.21.22.17h.07a1.6 1.6 0 0 0 .3.13h.34a1.55 1.55 0 0 0 .31 0l.24-.1a.87.87 0 0 0 .28-.26 1 1 0 0 0 .18-.34.78.78 0 0 0 0-.4.63.63 0 0 0-.12-.37l-.15-.2a1 1 0 0 0-.44-.26h-.27a1 1 0 0 0-.5.14l.24-.1h-.07.27-.09.27-.09l.24.1-.1-.05.21.16-.08-.08.16.21v-.07l.1.23a.14.14 0 0 1 0-.07v.27-.07.27a.69.69 0 0 0 0-.4.61.61 0 0 0-.12-.37.68.68 0 0 0-.25-.28.75.75 0 0 0-.34-.18h-.27a1 1 0 0 0-.5.14l-.21.15a1 1 0 0 0-.25.44Zm5.81 4.31a9.93 9.93 0 0 0 5.15 1.56 1 1 0 0 0 0-2h-.88c-.12 0-.11 0 0 0h-.16a9.36 9.36 0 0 1-1.14-.26l-.57-.2a2 2 0 0 1-.22-.09l-.13-.06a8.43 8.43 0 0 1-1.06-.59 1 1 0 0 0-1.36.36 1 1 0 0 0 .35 1.37Zm12.59 2.1h.13a.71.71 0 0 0 .38-.09.86.86 0 0 0 .33-.2 1.25 1.25 0 0 0 .29-.71v-.27a1.07 1.07 0 0 0-.25-.44l-.21-.15a1 1 0 0 0-.5-.14h-.13a.66.66 0 0 0-.39.09.72.72 0 0 0-.32.2.83.83 0 0 0-.2.32.66.66 0 0 0-.09.39v.27a1 1 0 0 0 .25.44l.21.15a1 1 0 0 0 .5.14Zm7.67-1.33a17.57 17.57 0 0 0 5.17-2.51 1 1 0 0 0-1-1.73 16.56 16.56 0 0 1-2.32 1.39c-.21.11-.42.2-.64.3 0 0-.29.12-.08 0l-.33.13q-.65.26-1.32.45a1 1 0 1 0 .53 1.93Zm9.49-5.42a9.45 9.45 0 0 0 2.15-1.89 1 1 0 0 0 .3-.71 1 1 0 0 0-1-1 1 1 0 0 0-.71.3 8.5 8.5 0 0 1-1.37 1.31l.21-.15-.59.41a1.07 1.07 0 0 0-.46.6 1 1 0 0 0 .11.77 1 1 0 0 0 .59.46 1 1 0 0 0 .77-.1Zm5.79-6.41a1 1 0 0 0 0-2 1 1 0 0 0 0 2Zm5.36-5.75.51-.88a.85.85 0 0 0 .12-.37.77.77 0 0 0 0-.4 1.15 1.15 0 0 0-.46-.6l-.24-.1a1 1 0 0 0-.53 0l-.24.1a1 1 0 0 0-.36.36l-.51.88a.77.77 0 0 0-.12.37.78.78 0 0 0 0 .4.75.75 0 0 0 .18.34.68.68 0 0 0 .28.25l.24.1a1 1 0 0 0 .53 0l.24-.1a.93.93 0 0 0 .36-.35Zm-41.83 9.59a9.19 9.19 0 0 1 .74-.64l-.2.16a6.2 6.2 0 0 1 .67-.47 1.06 1.06 0 0 0 .46-.6.78.78 0 0 0 0-.4.71.71 0 0 0-.12-.37 1 1 0 0 0-1.37-.36 10.42 10.42 0 0 0-1.62 1.27 1.05 1.05 0 0 0-.29.71 1 1 0 0 0 1 1 1.06 1.06 0 0 0 .71-.3Z" transform="translate(0 -6.28)"/><path class="cls-2" d="M592.66 254.11a2.31 2.31 0 0 0-.3 3.06 2.28 2.28 0 0 0 3.38.33 7.37 7.37 0 0 0 2.09-3.75 4.83 4.83 0 0 0-.49-4.17c-1.68-2.33-5.18-1.86-7.22-.31a8.4 8.4 0 0 0-3.21 7.44 4.59 4.59 0 0 0 2.1 3.75 8.66 8.66 0 0 0 4.33 1.15 6.68 6.68 0 0 0 4.13-1.39 9.17 9.17 0 0 0 2.54-3.69c1.24-2.93 2.45-6.33 1.17-9.45a6.05 6.05 0 0 0-7.38-3.46 12 12 0 0 0-4.65 2.67 22.63 22.63 0 0 0-3.73 4c-2.21 3.06-3.32 7.13-1.84 10.74.48 1.18 2.41.66 1.92-.53-2-4.87 1.31-9.51 4.86-12.59 1.69-1.47 3.92-2.92 6.28-2.41 2.1.46 3.1 2.51 3.09 4.52a15.56 15.56 0 0 1-2.1 6.9 5.39 5.39 0 0 1-8.2 1.36 4.42 4.42 0 0 1-.54-2.93 6.22 6.22 0 0 1 3-4.81c1.77-1 4.47-.68 4.21 1.88a6.7 6.7 0 0 1-1.28 3.24c-.14.18-.5.62-.76.45s-.1-.44.05-.56c1-.81-.42-2.22-1.42-1.41Z" transform="translate(0 -6.28)"/></svg>